<?xml version="1.0" encoding="utf-8"?>
<!-- Generator: Adobe Illustrator 16.0.0, SVG Export Plug-In . SVG Version: 6.00 Build 0)  -->
<!DOCTYPE svg PUBLIC "-//W3C//DTD SVG 1.1//EN" "http://www.w3.org/Graphics/SVG/1.1/DTD/svg11.dtd">
<svg version="1.1" id="Layer_1" xmlns="http://www.w3.org/2000/svg" xmlns:xlink="http://www.w3.org/1999/xlink" x="0px" y="0px"
	 width="595.28px" height="717px" viewBox="0 0 595.28 717" enable-background="new 0 0 595.28 717" xml:space="preserve">
<g>
	<polygon points="113.684,638.016 14.178,638.016 14.178,77.521 113.684,77.521 113.684,103.004 39.661,103.004 39.661,612.524 
		113.684,612.524 	"/>
</g>
<g>
	<rect x="159.019" y="15.772" width="137.233" height="137.229"/>
</g>
<g>
	<g>
		<g>
			<rect x="343.253" y="54.914" width="99.753" height="10.932"/>
		</g>
	</g>
	<g>
		<g>
			<rect x="343.253" y="100.925" width="99.753" height="10.934"/>
		</g>
	</g>
</g>
<g>
	<path d="M583.361,37.537l-68.864,88.434H572.3c3.265,0,5.92,0.946,7.974,2.813c2.054,1.879,3.088,4.385,3.088,7.522
		c0,3.019-1.061,5.527-3.177,7.521c-2.111,1.996-4.74,2.99-7.885,2.99h-79.557c-3.148,0-5.857-1.091-8.159-3.266
		c-2.29-2.171-3.442-4.65-3.442-7.422c0-2.302,0.845-4.593,2.538-6.893l68.689-88.443h-52.377c-3.265,0-5.92-0.965-7.974-2.902
		c-2.057-1.928-3.079-4.462-3.079-7.611c0-3.016,1.053-5.495,3.164-7.422c2.115-1.938,4.74-2.9,7.889-2.9h74.125
		c2.903,0,5.586,1.02,8.063,3.077c2.48,2.055,3.719,4.59,3.719,7.611C585.899,32.944,585.054,35.236,583.361,37.537z"/>
</g>
<g>
	<rect x="159.019" y="562.77" width="137.233" height="137.229"/>
</g>
<g>
	<g>
		<g>
			<rect x="343.253" y="601.911" width="99.753" height="10.932"/>
		</g>
	</g>
	<g>
		<g>
			<rect x="343.253" y="647.923" width="99.753" height="10.934"/>
		</g>
	</g>
</g>
<g>
	<path d="M583.361,584.534l-68.864,88.434H572.3c3.265,0,5.92,0.945,7.974,2.813c2.054,1.879,3.088,4.385,3.088,7.521
		c0,3.02-1.061,5.527-3.177,7.521c-2.111,1.996-4.74,2.99-7.885,2.99h-79.557c-3.148,0-5.857-1.092-8.159-3.266
		c-2.29-2.172-3.442-4.65-3.442-7.422c0-2.303,0.845-4.594,2.538-6.894l68.689-88.443h-52.377c-3.265,0-5.92-0.966-7.974-2.901
		c-2.057-1.928-3.079-4.463-3.079-7.611c0-3.016,1.053-5.495,3.164-7.423c2.115-1.938,4.74-2.899,7.889-2.899h74.125
		c2.903,0,5.586,1.02,8.063,3.076c2.48,2.055,3.719,4.59,3.719,7.611C585.899,579.94,585.054,582.233,583.361,584.534z"/>
</g>
</svg>
